<svg id="图层_1" data-name="图层 1" xmlns="http://www.w3.org/2000/svg" viewBox="0 0 661 102"><defs><style>.cls-1{fill:#242933;}</style></defs><title>画板 1</title><g id="页面-1"><path id="herobanner" class="cls-1" d="M610.73,0C623.83,0,636,4.38,645,12.33c7.29,6.44,16,18.35,16,38.51,0,34.83-26.06,50.7-50.27,50.7H488.3c-13.06,0-25.2-4.37-34.18-12.3-7.28-6.42-15.95-18.3-15.95-38.4,0-34.93,26-50.84,50.13-50.84H610.73Zm0,9.19H488.3c-20.38,0-41,12.88-41,41.65s20.58,41.51,41,41.51H610.73c20.46,0,41.11-12.84,41.11-41.51S631.19,9.19,610.73,9.19ZM615.32,45a5,5,0,0,1,5,5.05v26a2.38,2.38,0,0,1-2.45,2.55,7.16,7.16,0,0,1-2.77-.83l-7.44-3.61c-4,1.48-10.13,4.44-25.08,4.44-23.53,0-35.37-8.47-35.37-28.2,0-.81,0-1.58.07-2.36a21.5,21.5,0,0,0,7.23,10.46c6.57,5.27,16.62,7.68,29.29,7.68s19.61-1.23,22.47-2.3V56.56H595.8a6.29,6.29,0,0,1-6.28-6.31V45Zm-80.38-21v4.67a7,7,0,0,1-6.94,7H489.15l-1.4,8.66c4.6-.33,12.58-.91,18.09-.91,17.35,0,32.89.91,32.89,17.07,0,13-11.51,18.22-34.54,18.22a142.53,142.53,0,0,1-24.78-2.18,7.3,7.3,0,0,1-6-7.19h0V63.34A157.61,157.61,0,0,0,504,66.89c15.05,0,19.57-1,19.57-6.52,0-5.77-4.77-6.35-19.41-6.35h-1.05c-2.42,0-4.55,0-6.68,0h-.92c-4.11.06-8.36.17-14.78.36-5.67.25-7.4-3.29-6.5-8.16h0l3.3-19.48a3.43,3.43,0,0,1,3.38-2.87h54Zm53.53-1c16.09,0,25.82,2,29.66,3h0v4.88a6.13,6.13,0,0,1-7,6.1,158.3,158.3,0,0,0-22.66-1.69c-18.05,0-26.87,3.54-26.87,15.13,0,6,2.1,10,5.94,12.42a.23.23,0,0,1-.2.41c-9.17-3.43-16.1-9.58-17.6-17.6a14.46,14.46,0,0,1,2.14-11.1C558.11,26.34,570.49,22.94,588.47,22.94ZM58.14,101q8.2,0,12.87-3.53c2.65-2,5-5.31,7.08-10h0L116,2h-20L62.67,79.56c-1.23,2.64-2.74,4-4.53,4-2,0-3.58-1.31-4.81-4h0L20.23,2H0L38.05,87.46q3,7,7.22,10.16Q49.94,101,58.14,101Zm155.46-1V84.06H146.4V79.13q0-6.91,3.68-10.3t14.14-6.2h0L185.3,57q15.7-4.23,22.07-9.31Q216,40.77,216,27.94q0-14.25-10.19-20.59Q195.78,1,173,1a206.15,206.15,0,0,0-41.73,4.23h0V21.45a160.73,160.73,0,0,1,39.47-4.51q15.14,0,20.8,2.68,5.5,2.53,5.51,9.16a10.22,10.22,0,0,1-4.95,9q-3.68,2.4-13.72,5.07h0l-23.91,5.79Q135.21,53.89,131,63.76q-3.12,6.63-3,16.5h0V100Zm55.07,1q25.31,0,37.25-7.62T318,69.55q0-26.65-34.69-27.08H277.2l32.41-24q5.68-4.1,5.69-9.45,0-6.63-8-7H230.71V17.51h57.72L252.32,43.74v12h24q12.23,0,17.21,2.82,5.54,3.11,5.54,10.86,0,8.75-6.82,12.27-7,3.66-24,3.67A165.08,165.08,0,0,1,229,81h0v15.8Q245.35,101,268.67,101Zm104.8,0q17.75,0,27.13-3.67h0V82.92a90.92,90.92,0,0,1-25.57,4q-14.05.14-20-4t-7-13.69h56.11A70.4,70.4,0,0,0,405,57.65q0-13.71-8.1-21.61-9.22-9-28-9-18.32,0-28,9Q331,45.36,331,63.72,331,83.2,340.66,92,350.61,101,373.47,101ZM388,58H348q1-8.85,6.14-13t15-4q10.29,0,14.85,4.29,4.29,4,4,12.71Z"/></g></svg>